{"title":"Pacific.Rim.2013.HDrip.720p.Viet","uid":9262701,"size":2466143973,"categoryP":"video","categoryS":"hd___movies","magnet":"?xt=urn:btih:0949c2d7840b2de29d66a5c4150303b0a08e9fab&amp;dn=Pacific.Rim.2013.HDrip.720p.Viet&amp;tr=udp%3A%2F%2Ftracker.openbittorrent.com%3A80&amp;tr=udp%3A%2F%2Fopen.demonii.com%3A1337&amp;tr=udp%3A%2F%2Ftracker.coppersurfer.tk%3A6969&amp;tr=udp%3A%2F%2Fexodus.desync.com%3A6969","seeders":2,"leechers":0,"uploader":"jessketeer","files":-1,"time":1385649348,"description":"VIETNAMESE HARDSUB\nVIETNAMESE HARDSUB\nVIETNAMESE HARDSUB\nVIETNAMESE HARDSUB\nVIETNAMESE HARDSUB\nVIETNAMESE HARDSUB\nVIETNAMESE HARDSUB\nVIETNAMESE HARDSUB\nVIETNAMESE HARDSUB\nVIETNAMESE HARDSUB\nVIETNAMESE HARDSUB\n\n\nFormat                                   : Matroska\nFormat version                           : Version 2\nFile size                                : 2.30 GiB\nDuration                                 : 2h 11mn\nOverall bit rate                         : 2 505 Kbps\nEncoded date                             : UTC 2013-11-28 00:10:03\nWriting application                      : mkvmerge v6.2.0 ('Promised Land') built on Apr 28 2013 12:22:01\nWriting library                          : libebml v1.3.0 + libmatroska v1.4.0\n\nVideo\nID                                       : 1\nFormat                                   : AVC\nFormat/Info                              : Advanced Video Codec\nFormat profile                           : &lt;a class=&quot;__cf_email__&quot; href=&quot;/cdn-cgi/l/email-protection&quot; data-cfemail=&quot;2d65444a456d6119031d&quot;&gt;[email&amp;#160;protected]&lt;/a&gt;&lt;script cf-hash='f9e31' type=&quot;text/javascript&quot;&gt;\n/* &lt;![CDATA[ */!function(){try{var t=&quot;currentScript&quot;in document?document.currentScript:function(){for(var t=document.getElementsByTagName(&quot;script&quot;),e=t.length;e--;)if(t[e].getAttribute(&quot;cf-hash&quot;))return t[e]}();if(t&amp;&amp;t.previousSibling){var e,r,n,i,c=t.previousSibling,a=c.getAttribute(&quot;data-cfemail&quot;);if(a){for(e=&quot;&quot;,r=parseInt(a.substr(0,2),16),n=2;a.length-n;n+=2)i=parseInt(a.substr(n,2),16)^r,e+=String.fromCharCode(i);e=document.createTextNode(e),c.parentNode.replaceChild(e,c)}}}catch(u){}}();/* ]]&gt; */&lt;/script&gt;\nFormat settings, CABAC                   : Yes\nFormat settings, ReFrames                : 4 frames\nCodec ID                                 : V_MPEG4/ISO/AVC\nDuration                                 : 2h 11mn\nBit rate                                 : 2 322 Kbps\nWidth                                    : 1 280 pixels\nHeight                                   : 720 pixels\nDisplay aspect ratio                     : 16:9\nFrame rate mode                          : Constant\nFrame rate                               : 29.970 fps\nColor space                              : YUV\nChroma subsampling                       : 4:2:0\nBit depth                                : 8 bits\nScan type                                : Progressive\nBits/(Pixel*Frame)                       : 0.084\nStream size                              : 2.08 GiB (90%)\nWriting library                          : x264 core 133 r2334 a3ac64b\n\n\nAudio\nID                                       : 2\nFormat                                   : AC-3\nFormat/Info                              : Audio Coding 3\nMode extension                           : CM (complete main)\nFormat settings, Endianness              : Big\nCodec ID                                 : A_AC3\nDuration                                 : 2h 11mn\nBit rate mode                            : Constant\nBit rate                                 : 192 Kbps\nChannel(s)                               : 6 channels\nChannel positions                        : Front: L C R, Side: L R, LFE\nSampling rate                            : 48.0 KHz\nBit depth                                : 16 bits\nCompression mode                         : Lossy\nStream size                              : 180 MiB (8%)\nDefault                                  : Yes\nForced                                   : No\n\n","torrent":{"xt":"urn:btih:0949c2d7840b2de29d66a5c4150303b0a08e9fab","amp;dn":"Pacific.Rim.2013.HDrip.720p.Viet","amp;tr":["udp%3A%2F%2Ftracker.openbittorrent.com%3A80","udp%3A%2F%2Fopen.demonii.com%3A1337","udp%3A%2F%2Ftracker.coppersurfer.tk%3A6969","udp%3A%2F%2Fexodus.desync.com%3A6969"],"infoHash":"0949c2d7840b2de29d66a5c4150303b0a08e9fab","infoHashBuffer":{"type":"Buffer","data":[9,73,194,215,132,11,45,226,157,102,165,196,21,3,3,176,160,142,159,171]},"announce":[],"urlList":[]}}